<?xml version="1.0" encoding="utf-8"?>
<!-- Generator: Adobe Illustrator 24.1.0, SVG Export Plug-In . SVG Version: 6.00 Build 0)  -->
<svg version="1.1" id="Layer_1" xmlns="http://www.w3.org/2000/svg" xmlns:xlink="http://www.w3.org/1999/xlink" x="0px" y="0px"
	 viewBox="0 0 278 176" style="enable-background:new 0 0 278 176;" xml:space="preserve">
<style type="text/css">
	.st0{fill:#FFFFFF;stroke:#231F20;stroke-width:10;stroke-miterlimit:10;}
</style>
<path class="st0" d="M239.3,12.9c-2-1.1-4.2,1.3-3,3.2c10.2,16.1,7.5,33.9-5.7,33.9c-10.8,0-27.4,0-43.3,0
	c-12-5-37.1-14.9-47.8-14.8c-9.9,0.1-31.6,9.1-44.5,14.8c-16.9,0-35.2,0-46.7,0C35,50,32.4,32.3,42.6,16.1c1.2-1.9-0.9-4.3-3-3.2
	c-25,13.1-31.5,32.5-22.3,50c4.9,9.4,19,15.5,44,15.5c12.8,0,24.8,0,33.5,0l33.1,80.7c5.8,9.8,20,9.6,25.6-0.3l30.7-80.4
	c8.7,0,20.7,0,33.4,0c25,0,39.1-6.1,44-15.5C270.8,45.4,264.4,26,239.3,12.9z"/>
</svg>
