<?xml version="1.0" encoding="utf-8"?>
<!-- Generator: Adobe Illustrator 24.1.0, SVG Export Plug-In . SVG Version: 6.00 Build 0)  -->
<svg version="1.1" id="Layer_1" xmlns="http://www.w3.org/2000/svg" xmlns:xlink="http://www.w3.org/1999/xlink" x="0px" y="0px"
	 viewBox="0 0 325 205" style="enable-background:new 0 0 325 205;" xml:space="preserve">
<style type="text/css">
	.st0{fill:#FFFFFF;stroke:#231F20;stroke-width:12.364;stroke-miterlimit:10;}
</style>
<path class="st0" d="M281.2,112.4c-5.9,0-11.2,2-15.7,5.3c-4.3-19.3-20-33.7-38.6-33.7c-4.9,0-9.6,1.1-13.9,2.7
	c0.6-3.4,0.8-7,0.8-10.5c0-34.5-25.2-62.7-56.2-62.7s-56.2,28.1-56.2,62.7c0,3.9,0.4,7.6,0.9,11.4c-12.4,2.5-23.1,10.4-30,21.5
	c-5.4-3.4-11.7-5.5-18.4-5.5c-20.4,0-36.9,18.4-36.9,41.1s16.5,41.1,36.9,41.1c9.1,0,17.4-3.6,23.9-9.8c8.4,9.3,20,15,32.9,15
	c9.6,0,18.5-3.3,26-8.8c8.9,8.3,20.3,13.4,32.8,13.4c17.9,0,33.7-10.3,42.7-26c4.6,2,9.5,3.2,14.6,3.2c11.2,0,21.5-5.3,28.7-13.7
	c4.8,10.3,14.4,17.4,25.6,17.4c15.9,0,28.8-14.4,28.8-32.1C310,126.8,297.1,112.4,281.2,112.4z"/>
</svg>
