<?xml version="1.0" encoding="utf-8"?>
<!-- Generator: Adobe Illustrator 24.1.0, SVG Export Plug-In . SVG Version: 6.00 Build 0)  -->
<svg version="1.1" id="Layer_1" xmlns="http://www.w3.org/2000/svg" xmlns:xlink="http://www.w3.org/1999/xlink" x="0px" y="0px"
	 viewBox="0 0 88 56" style="enable-background:new 0 0 88 56;" xml:space="preserve">
<style type="text/css">
	.st0{fill:#231F20;}
	.st1{font-family:'SnellRoundhand-Black';}
	.st2{font-size:34.9783px;}
	.st3{font-size:23.8251px;}
</style>
<g>
	<text transform="matrix(0.9475 -0.3198 0.3198 0.9475 9.3689 37.8982)" class="st0 st1 st2">S</text>
	<text transform="matrix(1 0 0 1 32.5352 21.1445)" class="st0 st1 st3">weet</text>
	<g>
		<path class="st0" d="M39.3,25.1c1.2,0.6,2.1,1.3,2.9,2.1c0.8,0.8,1.1,2,1.1,3.4c0,1.1-0.3,1.9-0.8,2.6c-0.6,0.7-1.2,1.3-2,1.8
			c-0.8,0.5-1.7,0.8-2.6,1.1c-1,0.3-1.8,0.3-2.6,0.4v0.1c2.1,0.1,3.8,0.5,4.8,1.3c1.1,0.8,1.7,2.1,1.7,3.7c0,1.2-0.3,2.3-1,3.2
			c-0.7,1-1.5,1.8-2.5,2.5c-1,0.7-2.2,1.3-3.5,1.6c-1.3,0.4-2.6,0.6-3.8,0.6c-0.5,0-1-0.1-1.5-0.2c-0.6-0.1-1-0.3-1.5-0.6
			c-0.5-0.3-0.8-0.6-1.1-1c-0.3-0.4-0.4-0.9-0.4-1.5c0-0.8,0.3-1.4,0.7-1.9c0.5-0.5,1.1-0.7,1.9-0.7c0.5,0,1,0.1,1.4,0.3
			c0.4,0.2,0.7,0.5,0.9,0.7c-0.4,0.3-0.8,0.8-1.1,1.3c-0.3,0.5-0.6,1.1-0.6,1.6c0,0.5,0.2,0.8,0.5,1.1c0.3,0.3,0.7,0.3,1.2,0.3
			c0.7,0,1.4-0.3,2.1-0.7c0.7-0.5,1.3-1.1,1.8-1.8c0.6-0.8,1-1.6,1.3-2.5c0.3-0.9,0.5-1.9,0.5-2.8c0-0.8-0.2-1.6-0.5-2.2
			s-0.7-1-1.2-1.4c-0.5-0.3-1-0.6-1.6-0.6c-0.6-0.1-1.2-0.1-1.9,0.1l0.2-0.3c2.2-0.3,3.9-1.1,5.2-2.3c1.3-1.2,1.9-2.8,1.9-4.7
			c0-0.7-0.1-1.3-0.3-1.8c-0.2-0.6-0.5-1.1-1-1.5c-1.4,1.4-2.6,2.9-3.6,4.6c-1,1.7-2,3.4-2.9,5.1c-0.9,1.7-1.9,3.3-2.8,4.9
			c-1,1.6-2,3-3.3,4.2c-1.3,1.2-2.8,2.3-4.5,2.9c-1.7,0.8-3.8,1.1-6.4,1.1c-0.8,0-1.5-0.1-2.3-0.2s-1.4-0.4-1.9-0.7
			c-0.6-0.3-1-0.8-1.3-1.3c-0.3-0.5-0.5-1.2-0.5-1.9c0-0.7,0.2-1.3,0.7-1.8c0.5-0.6,1.1-0.8,1.8-0.8c0.7,0,1.2,0.2,1.6,0.6
			c0.4,0.3,0.6,0.8,0.6,1.5c0,0.9-0.5,1.5-1.4,1.9c0.1,0.8,0.3,1.5,0.8,1.8c0.5,0.3,1.1,0.6,1.8,0.6c1.2,0,2.3-0.3,3.2-0.8
			c1-0.6,1.8-1.3,2.6-2.2c0.8-0.9,1.6-2,2.3-3.2c0.7-1.2,1.5-2.4,2.2-3.8c0.7-1.3,1.5-2.6,2.3-4c0.8-1.4,1.6-2.6,2.5-3.8
			c0.9-1.2,1.9-2.3,3-3.3c1.1-1-1.2-2-1.2-2.6s2-1,2.8-1C35.1,24.1,37.8,24.4,39.3,25.1z"/>
	</g>
	<g>
		<path class="st0" d="M49.9,28.3c-0.5,0.8-1,1.6-1.5,2.4c-0.5,0.8-0.9,1.5-1.3,2.1c-0.4,0.7-0.7,1.3-0.9,1.8
			c-0.3,0.5-0.3,0.9-0.3,1.2c0,0.2,0.1,0.4,0.1,0.6c0.1,0.2,0.2,0.2,0.4,0.2c0.3,0,0.7-0.1,1-0.3c0.3-0.3,0.8-0.5,1.2-0.8
			c0.4-0.3,0.8-0.8,1.2-1.2c0.3-0.5,0.8-0.9,1.1-1.3c0.3-0.5,0.7-0.8,1-1.2c0.3-0.4,0.5-0.7,0.7-1l0.2,0.1c-0.4,0.6-0.8,1.2-1.4,2
			c-0.6,0.8-1.2,1.5-1.9,2.3c-0.7,0.8-1.4,1.3-2,1.7c-0.6,0.4-1.3,0.6-2.1,0.6c-0.7,0-1.2-0.2-1.5-0.6c-0.3-0.3-0.5-0.9-0.5-1.6
			c0-0.7,0.3-1.6,0.9-2.7c0.6-1.1,1.4-2.4,2.3-3.9L49.9,28.3z M48.6,24.6c0-0.5,0.2-0.8,0.5-1.2c0.3-0.3,0.7-0.5,1.2-0.5
			s0.8,0.2,1.2,0.5c0.3,0.3,0.5,0.7,0.5,1.2c0,0.5-0.2,0.8-0.5,1.2c-0.3,0.3-0.7,0.5-1.2,0.5c-0.5,0-0.8-0.2-1.2-0.5
			C48.9,25.5,48.6,25.1,48.6,24.6z"/>
		<path class="st0" d="M53.2,34.3c0.1,0,0.2-0.1,0.3-0.1c1.2-0.2,2.4,0.3,3.3,0.8c1.4,0.8,3.9,2,6.2,1.1c3.8-1.6,5.8-5.6,6.1-6.1
			l0.6,0.5c-0.4,0.6-2.6,4.3-4.9,6c-3,2.2-7,2-10.6,0.5c-0.7-0.3-0.7-0.3-1-0.5c-0.3-0.2-0.6-0.3-0.9-0.5s-0.6-0.2-1-0.2
			c-0.2,0-0.4,0.1-0.6,0.2s-0.3,0.3-0.5,0.5c-0.2,0.2-0.3,0.3-0.5,0.5s-0.3,0.2-0.5,0.2s-0.3-0.1-0.3-0.3s0.1-0.3,0.2-0.4
			s0.3-0.3,0.6-0.4c0.3-0.2,0.5-0.3,0.8-0.4c0.3-0.2,0.6-0.3,0.8-0.5c0.3-0.2,0.7-0.5,1.2-0.9c0.5-0.4,1-0.8,1.6-1.3
			c0.6-0.5,1.2-0.9,1.9-1.3s1.3-0.8,2-1l-0.1-0.1c-0.3,0.1-0.7,0.2-1,0.2c-0.3,0-0.7,0.1-1,0.1s-0.7,0-1-0.1
			c-0.3-0.1-0.5-0.1-0.7-0.2s-0.4-0.1-0.6-0.2c-0.2-0.1-0.3-0.1-0.5-0.1s-0.3,0.1-0.4,0.1c-0.1,0.1-0.2,0.1-0.3,0.2
			c-0.1,0.1-0.2,0.2-0.2,0.3s-0.1,0.2-0.2,0.2l-0.1-0.2c0.2-0.2,0.3-0.5,0.6-0.8c0.3-0.3,0.5-0.7,0.8-1c0.3-0.3,0.7-0.6,1-0.8
			c0.3-0.2,0.7-0.3,1-0.3s0.7,0.1,1.1,0.2c0.4,0.1,0.8,0.3,1.2,0.3c0.4,0.2,0.8,0.3,1.1,0.3c0.3,0.1,0.6,0.2,0.8,0.2
			c0.3,0,0.5-0.1,0.7-0.2c0.2-0.2,0.3-0.3,0.3-0.5c0.1-0.2,0.2-0.3,0.2-0.5c0.1-0.2,0.2-0.2,0.3-0.2c0.2,0,0.2,0.1,0.3,0.1
			c0.1,0.1,0.1,0.2,0.1,0.3c0,0.2-0.2,0.4-0.5,0.6s-0.7,0.4-1,0.7c-1.2,0.9-2.3,1.8-3.4,2.6C55.7,32.8,54.6,33.6,53.2,34.3
			L53.2,34.3z"/>
	</g>
	<polygon class="st0" points="71.6,27.9 65.5,30.6 70.9,34.6 	"/>
</g>
</svg>
